<svg width="60" height="60" viewBox="0 0 60 60" fill="none" xmlns="http://www.w3.org/2000/svg">
<path d="M30.1477 24.969C25.6604 24.969 22.0227 28.6067 22.0227 33.094C22.0227 37.5813 25.6604 41.219 30.1477 41.219C34.635 41.219 38.2727 37.5813 38.2727 33.094C38.2727 28.6067 34.635 24.969 30.1477 24.969Z" fill="#48CB9F"/>
<path fill-rule="evenodd" clip-rule="evenodd" d="M39.2731 6.19675C34.0689 1.57081 26.2265 1.57081 21.0223 6.19675L20.483 6.6762C19.0026 7.99211 17.0907 8.71899 15.11 8.71899C8.57246 8.71899 3.27271 14.0187 3.27271 20.5563V33.2071C3.27268 37.7985 3.27267 41.3975 3.58203 44.2528C3.89772 47.1666 4.55352 49.5276 6.01809 51.5434C6.90473 52.7638 7.97793 53.837 9.19829 54.7236C11.2141 56.1882 13.5751 56.844 16.4889 57.1597C19.3442 57.469 22.9431 57.469 27.5343 57.469H32.7609C37.3521 57.469 40.9512 57.469 43.8065 57.1597C46.7204 56.844 49.0813 56.1882 51.0971 54.7236C52.3175 53.837 53.3907 52.7638 54.2773 51.5434C55.7419 49.5276 56.3977 47.1666 56.7134 44.2528C57.0227 41.3975 57.0227 37.7986 57.0227 33.2074V20.5563C57.0227 14.0187 51.7229 8.71899 45.1854 8.71899C43.2047 8.71899 41.2928 7.99211 39.8124 6.6762L39.2731 6.19675ZM18.2727 33.094C18.2727 26.5356 23.5893 21.219 30.1477 21.219C36.7061 21.219 42.0227 26.5356 42.0227 33.094C42.0227 39.6524 36.7061 44.969 30.1477 44.969C23.5893 44.969 18.2727 39.6524 18.2727 33.094ZM45.1477 23.0941C43.767 23.0941 42.6477 21.9748 42.6477 20.5941C42.6477 19.2134 43.767 18.0941 45.1477 18.0941C46.5284 18.0941 47.6477 19.2134 47.6477 20.5941C47.6477 21.9748 46.5284 23.0941 45.1477 23.0941Z" fill="#4D7BAA"/>
</svg>
