<svg width="23" height="23" viewBox="0 0 23 23" fill="none" xmlns="http://www.w3.org/2000/svg">
<path d="M9.25013 21.9666L10.2066 22.1238L11.4022 22.1912V21.2928L11.5457 21.158L11.7131 21.0907H11.9283L12.024 21.1131L12.0718 21.158L12.2153 21.2928V22.1912L13.1478 22.1687L14.4391 21.9217L15.5152 21.5623L16.4956 21.158L16.1608 20.5516L16.0652 20.372V20.1923L16.113 20.08L16.2086 20.0126L16.376 19.9228H16.5673L16.7347 20.0126L16.9021 20.2821L17.2129 20.7538L17.9064 20.3046L18.7672 19.6308L19.6281 18.7549L20.3455 17.8116L19.5324 17.2726L19.4846 17.1828V16.9132L19.6281 16.756L19.7955 16.6662H19.9868L20.752 17.1154L21.2541 16.1946L21.6128 15.2063L21.9476 13.0278H20.9737L20.9194 12.9829L20.8237 12.9155L20.752 12.8481L20.7281 12.7807V12.5337L20.8476 12.3765L21.0389 12.2642H21.9476L21.8998 11.6353L21.828 11.0514L21.7324 10.5348L21.6128 10.0856L21.4454 9.63645L21.2302 9.05251L21.015 8.60332L20.7998 8.22152L19.9629 8.60332L19.7477 8.58086L19.6042 8.51349L19.5324 8.40119L19.5085 8.26643V8.15414L19.5564 8.01938L19.652 7.95201L20.3455 7.52528L20.202 7.27823L20.0346 7.0761L19.939 6.94134L19.8194 6.82904L19.102 5.99805L18.576 5.48149L17.9303 5.00985L17.2129 4.5382L16.7108 5.30182L16.5673 5.39165H16.3043L16.1608 5.2569L16.0891 5.16706L16.0652 5.07723V4.89755L16.4956 4.17886L16.1608 3.97672L15.8021 3.81951L15.5152 3.70721L15.2282 3.61737L14.7261 3.48262L14.1761 3.3254L13.8413 3.25803L13.5065 3.21311L13.2435 3.16819L12.9566 3.10081L12.6218 3.07835H12.2392V3.84197L12.2153 3.9318L12.1914 3.99918L12.0957 4.13394L11.9762 4.17886L11.9044 4.22377H11.737L11.6175 4.17886L11.4501 4.0441L11.4023 3.90934V3.07835H10.9958L10.7327 3.12327L10.374 3.16819L10.0393 3.21311L9.72841 3.25803L9.46537 3.30294C9.46537 3.30294 9.32905 3.33016 9.25016 3.30294C8.70018 3.01097 9.15451 2.62917 9.15451 2.62917C9.15451 2.62917 10.005 2.39436 10.5653 2.38212L10.5893 1.93293H9.82424C9.82424 1.93293 9.79399 1.93889 9.77642 1.93293C8.91561 1.64096 8.96343 0.967184 8.96343 0.967184C8.96343 0.967184 9.01128 0.136192 9.77642 0.00143676C9.79478 -0.00179594 9.82424 0.00143676 9.82424 0.00143676H13.7459C14.6068 0.113733 14.6546 0.944725 14.6546 0.944725C14.6546 0.944725 14.7742 1.70834 13.7459 1.93293H13.0286V2.39021L12.2153 2.29228V1.16932H13.7459V0.765051H9.84816C9.84816 0.765051 9.65691 0.989643 9.84816 1.16932H11.4023L11.4023 2.31474L12.2153 2.29228L14.0805 2.51687L14.8695 2.71901L16.1608 3.16819L16.8304 3.48262L17.4999 3.81951L17.9303 4.06656L18.3368 4.35853L18.7912 4.69542L19.2216 5.03231L20.1066 4.24623L19.5805 3.70721H20.7044L21.2544 4.24623L21.8761 3.70721L21.3022 3.14573L20.7044 3.70721H19.5805L21.3022 2.09015L23 3.70721L21.3022 5.32428L20.7044 4.78526L19.8433 5.66117L20.4172 6.29002L20.9194 6.91888L21.5411 7.90709L21.9715 8.783L22.2824 9.63645L22.5454 10.6022L22.7128 11.5679L22.7606 12.0171V13.0727L22.7367 13.7465L22.6171 14.3978L22.4976 15.0267L22.2824 15.6555L22.0911 16.2619L21.8041 16.8683L21.5172 17.4747L21.1346 18.0362L20.7759 18.6201L20.5846 18.8672L20.3455 19.1143L20.1302 19.3838L19.8911 19.6308L19.6281 19.8779L19.3651 20.1249L19.0781 20.4169L18.7672 20.6639L18.4325 20.8885L18.0499 21.1131L17.3325 21.5623L16.5912 21.9217L15.7543 22.281L14.8695 22.573L13.8891 22.7976L13.387 22.8874L12.8848 22.9323L11.8566 22.9997H11.1631L10.8523 22.9548L10.0871 22.8874L9.32187 22.7526L9.10663 22.6628L9.03492 22.573L8.96318 22.4831V22.2361L9.01101 22.1687L9.10666 22.0564L9.25013 21.9666Z" fill="#D9D9D9"/>
<path d="M12.3587 13.7465L12.9326 13.0727L14.8695 10.5797L16.5912 8.44611H16.8542L16.9499 8.49102L17.0455 8.5584L17.0933 8.62578L17.1412 8.76054L17.1172 8.85037L17.0694 8.96267L13.1 14.1508L12.8369 14.3529L12.55 14.4876L12.2152 14.5326H11.8804H11.6652L11.4261 14.4427L11.2109 14.3529L10.9239 14.1058L10.7805 13.8812L10.6609 13.5893L10.5892 13.4321V13.2075V13.0503L10.6609 12.8257L10.8044 12.5112L11.0196 12.2417L11.1631 12.1294L16.4238 8.49102L16.5912 8.44611L14.8695 10.5797L11.5457 12.8481L11.4739 12.9604L11.4261 13.1176V13.3871L11.4978 13.4994L11.6652 13.6567L11.7131 13.7016L11.7609 13.7465L11.7848 13.7689L11.8565 13.7914H12.1913L12.3587 13.7465Z" fill="#48CB9F"/>
<path d="M8.29867 13.4321C8.86783 13.8139 8.2987 14.1831 8.2987 14.1831L0.21342 14.1834C0.21342 14.1834 -0.266685 13.9262 0.213383 13.4324L8.29867 13.4321Z" fill="#D9D9D9"/>
<path d="M8.33235 16.0824C8.73516 16.4642 8.33239 16.8334 8.33239 16.8334L2.61037 16.8336C2.61037 16.8336 2.27059 16.5764 2.61033 16.0827L8.33235 16.0824Z" fill="#D9D9D9"/>
<path d="M8.33204 10.7371C8.79059 11.1189 8.33207 11.4881 8.33207 11.4881L1.81824 11.4883C1.81824 11.4883 1.43145 11.2311 1.8182 10.7374L8.33204 10.7371Z" fill="#D9D9D9"/>
<path d="M8.38978 8.042C8.71453 8.42382 8.38982 8.79299 8.38982 8.79299L3.77672 8.79319C3.77672 8.79319 3.50279 8.53595 3.77668 8.0422L8.38978 8.042Z" fill="#D9D9D9"/>
<path d="M8.42658 18.7327C8.67186 19.1145 8.42662 19.4837 8.42662 19.4837L4.94253 19.4838C4.94253 19.4838 4.73564 19.2266 4.9425 18.7328L8.42658 18.7327Z" fill="#D9D9D9"/>
<path d="M8.51883 5.34699C8.71468 5.72882 8.51887 6.09798 8.51887 6.09798L5.73702 6.0981C5.73702 6.0981 5.57182 5.84086 5.73698 5.34711L8.51883 5.34699Z" fill="#D9D9D9"/>
</svg>
