<svg width="20" height="20" viewBox="0 0 20 20" fill="none" xmlns="http://www.w3.org/2000/svg">
<path fill-rule="evenodd" clip-rule="evenodd" d="M2.5 10.8334C2.5 13.9581 2.5 15.5205 3.29576 16.6158C3.55276 16.9695 3.86383 17.2806 4.21756 17.5376C5.31283 18.3334 6.87522 18.3334 10 18.3334C13.1248 18.3334 14.6872 18.3334 15.7824 17.5376C16.1362 17.2806 16.4472 16.9695 16.7042 16.6158C17.5 15.5205 17.5 13.9581 17.5 10.8334V9.16669C17.5 8.46757 17.5 7.84666 17.4911 7.29169L17.4326 7.29169C16.7226 7.29175 16.2901 7.29178 15.9171 7.23269C13.8668 6.90795 12.2587 5.29992 11.934 3.2496C11.8749 2.87654 11.8749 2.44405 11.875 1.73404L11.875 1.6756C11.32 1.66669 10.6991 1.66669 10 1.66669C6.87522 1.66669 5.31283 1.66669 4.21756 2.46245C3.86383 2.71945 3.55276 3.03052 3.29576 3.38425C2.5 4.47952 2.5 6.04191 2.5 9.16669V10.8334ZM10.625 7.50002C10.625 7.15484 10.3452 6.87502 10 6.87502C9.65482 6.87502 9.375 7.15484 9.375 7.50002V13.2802C9.36315 13.271 9.35107 13.2614 9.33874 13.2515C9.06989 13.0356 8.75027 12.7145 8.27545 12.2354L7.11058 11.0601C6.86759 10.8149 6.47187 10.8131 6.2267 11.0561C5.98154 11.2991 5.97977 11.6948 6.22276 11.94L7.41303 13.1409C7.85586 13.5878 8.22518 13.9604 8.55604 14.2261C8.90306 14.5048 9.26776 14.7168 9.71209 14.7734C9.90326 14.7978 10.0967 14.7978 10.2879 14.7734C10.7322 14.7168 11.0969 14.5048 11.444 14.2261C11.7748 13.9604 12.1441 13.5878 12.5869 13.141L13.7772 11.94C14.0202 11.6948 14.0185 11.2991 13.7733 11.0561C13.5281 10.8131 13.1324 10.8149 12.8894 11.0601L11.7246 12.2354C11.2497 12.7145 10.9301 13.0356 10.6613 13.2515C10.6489 13.2614 10.6368 13.271 10.625 13.2802V7.50002Z" fill="#47C299"/>
<path d="M16.1126 5.99808C16.3696 6.03879 16.6869 6.04158 17.4456 6.04168C17.3669 4.842 17.1745 4.03155 16.7042 3.38425C16.4472 3.03052 16.1362 2.71945 15.7824 2.46245C15.1351 1.99216 14.3247 1.79981 13.125 1.72113C13.1251 2.47975 13.1279 2.79707 13.1686 3.05406C13.4086 4.56951 14.5972 5.75806 16.1126 5.99808Z" fill="#47C299"/>
</svg>
