<svg width="20" height="20" viewBox="0 0 20 20" fill="none" xmlns="http://www.w3.org/2000/svg">
<path fill-rule="evenodd" clip-rule="evenodd" d="M2.5 10.8334C2.5 13.9581 2.5 15.5205 3.29576 16.6158C3.55276 16.9695 3.86383 17.2806 4.21756 17.5376C5.31283 18.3334 6.87522 18.3334 10 18.3334C13.1248 18.3334 14.6872 18.3334 15.7824 17.5376C16.1362 17.2806 16.4472 16.9695 16.7042 16.6158C17.5 15.5205 17.5 13.9581 17.5 10.8334V9.16669C17.5 8.46757 17.5 7.84666 17.4911 7.29169L17.4326 7.29169C16.7226 7.29175 16.2901 7.29178 15.9171 7.23269C13.8668 6.90795 12.2587 5.29992 11.934 3.2496C11.8749 2.87654 11.8749 2.44405 11.875 1.73404L11.875 1.6756C11.32 1.66669 10.6991 1.66669 10 1.66669C6.87522 1.66669 5.31283 1.66669 4.21756 2.46245C3.86383 2.71945 3.55276 3.03052 3.29576 3.38425C2.5 4.47952 2.5 6.04191 2.5 9.16669V10.8334ZM10.625 8.33335C10.625 7.98818 10.3452 7.70835 10 7.70835C9.65482 7.70835 9.375 7.98818 9.375 8.33335V10.2084H7.5C7.15482 10.2084 6.875 10.4882 6.875 10.8334C6.875 11.1785 7.15482 11.4584 7.5 11.4584H9.375V13.3334C9.375 13.6785 9.65482 13.9584 10 13.9584C10.3452 13.9584 10.625 13.6785 10.625 13.3334V11.4584H12.5C12.8452 11.4584 13.125 11.1785 13.125 10.8334C13.125 10.4882 12.8452 10.2084 12.5 10.2084H10.625V8.33335Z" fill="#47C299"/>
<path d="M16.1126 5.99808C16.3696 6.03879 16.6869 6.04158 17.4456 6.04168C17.3669 4.842 17.1745 4.03155 16.7042 3.38425C16.4472 3.03052 16.1362 2.71945 15.7824 2.46245C15.1351 1.99216 14.3247 1.79981 13.125 1.72113C13.1251 2.47975 13.1279 2.79707 13.1686 3.05406C13.4086 4.56951 14.5972 5.75806 16.1126 5.99808Z" fill="#47C299"/>
</svg>
