<svg width="20" height="20" viewBox="0 0 20 20" fill="none" xmlns="http://www.w3.org/2000/svg">
<ellipse cx="9.95269" cy="9.9526" rx="4.73907" ry="4.7391" fill="#48CB9F"/>
<path d="M10.9005 18.6726L11.4692 19.9995L8.53094 19.9995L8.15181 19.8099L7.77267 18.7673L7.39354 17.5352L7.1092 17.4404L6.91963 17.3456L6.44573 17.156L5.82964 17.5352L4.55009 18.1986L4.17097 18.1986L3.69704 17.8195L2.9862 17.0613L1.89619 16.0187L1.80141 15.7817L1.80141 15.4499L2.55969 13.9334L2.84403 13.4595L2.55969 12.8434L2.13319 12.4643L1.5645 12.3222L0.237554 11.8483L0.09534 11.6587L0.000558296 11.4691L0.000572101 8.53088L0.379713 8.05697L0.948404 7.86741L2.55969 7.3935L2.70187 6.91959L2.89143 6.58785L2.46493 5.87698L1.80146 4.50264L1.80147 4.17091L2.60712 3.27048L4.17102 1.80136L4.45537 1.80136L5.54535 2.32266L6.44578 2.84396L7.10925 2.607L7.39359 2.607L7.82011 1.18527L8.19924 0.23745L8.57836 0.000495504L11.5166 0.000495712L11.9431 0.427014L12.6066 2.51222L13.1753 2.74918L13.507 2.74918L13.8387 2.65439L14.36 2.41744L15.4974 1.80135L15.8291 1.80135L16.54 2.41744L18.1039 4.02873L18.1987 4.2183L18.1987 4.50264L17.2509 6.39828L17.4404 7.3461L19.6204 8.05697L19.9995 8.48349L19.9995 11.4691L19.81 11.8483L17.4404 12.6065L17.2509 13.1752L17.1087 13.4595L18.0091 15.1182L18.1987 15.4974L18.1987 15.8291L18.1039 16.0187L16.0187 18.1039L15.8291 18.1987L15.45 18.1987L13.6018 17.2508L13.6018 17.156L13.3174 17.156L13.0805 17.2982L12.8909 17.4404L12.6066 17.4404L11.9431 19.6204L11.6588 19.9047L11.4692 19.9995L10.9005 18.6726L11.2322 17.393L11.6588 16.4926L11.9905 16.3978L12.417 16.2556L13.1753 15.8291L13.7439 15.8291L15.5448 16.6821L16.777 15.45L16.5874 15.2604L15.8291 13.7439L15.8291 13.1752L16.4452 11.8483L16.777 11.4691L17.9143 11.09L18.6726 10.9004L18.6726 9.14696L17.3456 8.72044L16.54 8.34132L15.8291 6.8248L15.8291 6.3035L15.9239 6.16133L16.7769 4.50264L15.4974 3.22308L15.0709 3.50743L13.6966 4.1709L13.27 4.17091L11.7061 3.50743L11.564 3.22308L11.2796 2.65439L10.9005 1.32744L9.09966 1.32744L8.67314 2.65439L8.3414 3.50743L7.58315 3.74439L6.77751 4.17091L6.351 4.17091L5.26101 3.60221L4.40797 3.31787L3.22319 4.55003L3.50753 4.92916L4.17099 6.25611L4.17099 6.77741L3.41272 8.4361L1.3275 9.09958L1.3275 10.9004L1.65923 10.9952L2.03836 11.09L2.65444 11.2796L3.46013 11.6587L3.6023 11.8482L4.17098 13.1752L4.17097 13.6965L3.69706 14.6917L3.22315 15.5447L3.5075 15.7817L4.55008 16.7295L5.54529 16.2082L6.06659 15.9239L6.44572 15.8291L6.77745 15.8291L7.20397 16.0187L8.34135 16.4926L8.72048 17.393L9.09963 18.6726L10.9005 18.6726Z" fill="#D9D9D9"/>
</svg>
