<svg width="17" height="17" viewBox="0 0 17 17" fill="none" xmlns="http://www.w3.org/2000/svg">
<path d="M7.99716 0.345483C8.14683 -0.115172 8.79854 -0.115172 8.94822 0.345483L10.6056 5.4463C10.6725 5.65231 10.8645 5.79179 11.0811 5.79179H16.4444C16.9288 5.79179 17.1302 6.4116 16.7383 6.6963L12.3993 9.84877C12.224 9.97609 12.1507 10.2018 12.2177 10.4078L13.875 15.5086C14.0247 15.9693 13.4974 16.3523 13.1056 16.0676L8.76658 12.9151C8.59134 12.7878 8.35404 12.7878 8.17879 12.9151L3.83978 16.0676C3.44793 16.3523 2.92069 15.9693 3.07036 15.5086L4.72772 10.4078C4.79465 10.2018 4.72132 9.97609 4.54608 9.84877L0.207071 6.6963C-0.184786 6.4116 0.0166019 5.79179 0.500963 5.79179H5.86428C6.08089 5.79179 6.27287 5.65231 6.3398 5.4463L7.99716 0.345483Z" fill="#BE9859"/>
</svg>
