<svg width="40" height="48" viewBox="0 0 40 48" fill="none" xmlns="http://www.w3.org/2000/svg">
<rect y="22.1353" width="1.10092" height="3.72932" fill="#54AE85"/>
<rect x="38.0428" y="22.1353" width="1.10092" height="3.72932" fill="#54AE85"/>
<rect x="28.1345" y="16.2406" width="4.03669" height="15.3985" fill="#54AE85"/>
<path d="M34.4954 3.72932H39.1437C37.7538 6.56886 35.3517 9.02255 31.315 9.26315H24.526C20.3091 10.5741 18.8761 12.1359 17.737 16.1804V21.2331H13.9449V16.1804C14.9847 9.74435 18.5933 6.55638 24.526 5.65413H31.315C33.0371 5.14938 33.7468 4.73468 34.4954 3.72932Z" fill="#54AE85"/>
<rect x="6.85016" y="16.2406" width="4.03669" height="15.3985" fill="#54AE85"/>
<path d="M40 0C40.0013 1.55677 39.8964 2.40719 39.2049 3.78947H24.3425C17.9205 4.87218 13.211 9.20301 12.2936 15.3985C12.2936 15.3985 12.1033 16.5821 12.1713 17.624H11.8655C11.9175 15.4976 8.56271 15.3985 8.56271 15.3985C9.05198 8.66165 14.3119 1.44361 24.3425 0H40Z" fill="#54AE85"/>
<rect x="11.8654" y="22.1353" width="15.4128" height="3.72932" fill="#54AE85"/>
<path d="M2.69115 44.1253C11.8043 42.2857 13.945 39.8797 13.945 26.7068H17.737C19.8165 40.782 11.7431 48 2.69115 48V44.1253Z" fill="#54AE85"/>
<rect x="33.1498" y="18.1654" width="3.91437" height="11.5489" fill="#54AE85"/>
<rect x="2.0795" y="18.1654" width="3.91437" height="11.5489" fill="#54AE85"/>
</svg>
