<svg width="29" height="25" viewBox="0 0 29 25" fill="none" xmlns="http://www.w3.org/2000/svg">
<path d="M20.2512 15.1765V8.57662C20.2512 8.07292 20.2552 7.5346 19.946 7.13699C19.1676 6.1361 17.0721 5.57022 14.7802 5.5945C12.9788 5.68316 11.7772 5.85702 10.9533 6.30967C9.80021 6.94324 9.6801 8.46635 9.6801 9.78208V15.2074M20.2512 15.1765H21.8276M20.2512 15.1765L18.613 15.1869M21.8276 15.1765V13.291C21.8585 12.5185 23.7749 12.4876 23.8676 13.291V13.7855M21.8276 15.1765V16.4438M23.8676 13.7855C24.177 13.3318 24.6104 13.1809 25.0022 13.3328C25.4341 13.5002 25.5367 14.0333 25.5367 14.4965M23.8676 13.7855V17.7729M25.5367 14.4965C25.746 14.0588 26.0724 13.8906 26.3502 13.9918C26.7731 14.1459 26.7731 14.7263 26.7731 15.1765M25.5367 14.4965V17.2165M26.7731 15.1765H27.2269C27.7526 15.1765 28.5528 15.3392 28.498 15.8621C28.4442 16.3764 27.7581 16.4438 27.241 16.4438H26.7731M26.7731 15.1765V16.4438M26.7731 16.4438C26.7731 16.9519 26.6831 17.6571 26.1755 17.6332C25.9589 17.623 25.7299 17.4841 25.5367 17.2165M25.5367 17.2165C25.5367 17.5861 25.5391 18.0326 25.2101 18.2011C24.7906 18.4159 24.1155 18.2012 23.8676 17.7729M23.8676 17.7729C23.8676 18.1599 23.8139 18.5955 23.4779 18.7875C23.2964 18.8913 23.0838 18.9356 22.8713 18.9309C22.0507 18.9126 21.8276 17.9345 21.8276 17.1137V16.4438M21.8276 16.4438H17.3457M7.14551 16.4438V16.8304C7.14551 17.7779 6.90498 19.0021 5.96184 18.9113C5.74637 18.8905 5.54036 18.8122 5.37819 18.6731C5.12963 18.46 5.10548 18.1003 5.10548 17.7729M7.14551 16.4438H12.5547M7.14551 16.4438V15.2074M5.10548 17.7729C4.61093 18.5149 3.65273 18.484 3.43637 17.7729M5.10548 17.7729V13.8783M3.43637 17.7729V14.4346M3.43637 17.7729C3.43637 17.6062 3.18158 17.518 3.02875 17.5845C2.75633 17.703 2.475 17.6077 2.30265 17.2985C2.27332 17.2459 2.2618 17.1854 2.2618 17.1251V16.4438M2.2618 16.4438H0.963603C0.616594 16.4092 0.464389 16.0531 0.506986 15.7309C0.572226 15.2375 1.21351 15.2074 1.71123 15.2074H2.2618M2.2618 16.4438V15.2074M2.2618 15.2074C2.2618 14.6956 2.33389 13.9921 2.84504 14.0181C3.07126 14.0297 3.30333 14.1685 3.43637 14.4346M3.43637 14.4346C3.43637 14.0698 3.49534 13.6691 3.78998 13.4538C4.21569 13.1428 4.72474 13.3549 5.10548 13.8783M5.10548 13.8783C5.10548 13.5548 5.17582 13.2162 5.42085 13.005C5.64101 12.8153 5.89462 12.7202 6.14723 12.7232C6.96744 12.7331 7.14551 13.8161 7.14551 14.6364V15.2074M7.14551 15.2074H9.6801M9.6801 15.2074H11.2565M11.2565 15.2074V8.66741C11.2565 8.536 11.2814 8.38405 11.3307 8.26226C11.6403 7.49887 12.5547 8.15233 12.5547 8.97611V15.2074M11.2565 15.2074H12.5547M12.5547 15.2074H14.4402M14.4402 15.2074V14.8519C14.4402 14.5873 14.6547 14.3728 14.9193 14.3728C15.1839 14.3728 15.3984 14.5873 15.3984 14.8519V15.2074M14.4402 15.2074H15.3984M15.3984 15.2074L17.3457 15.195M18.613 15.1869V8.58146C18.613 8.50669 18.6057 8.42174 18.5887 8.34891C18.394 7.51221 17.3457 8.20292 17.3457 9.06198V15.195M18.613 15.1869L17.3457 15.195M17.3457 16.4438V21.8696C17.3457 22.7383 17.2947 23.9617 16.4266 23.9931C15.5399 24.0252 15.4602 22.7283 15.4602 21.841V16.4438M17.3457 16.4438H15.4602M15.4602 16.4438H14.4402M14.4402 16.4438V21.8631C14.4402 22.7327 14.3516 24.017 13.4823 23.9933C12.6187 23.9699 12.5547 22.7359 12.5547 21.872V16.4438M14.4402 16.4438H12.5547" stroke="currentColor"/>
<path d="M14.9346 0.5C15.8704 0.5 16.6288 1.25856 16.6289 2.19434C16.6289 3.13023 15.8705 3.88867 14.9346 3.88867C13.9988 3.88854 13.2402 3.13015 13.2402 2.19434C13.2404 1.25864 13.9989 0.500131 14.9346 0.5Z" stroke="currentColor"/>
</svg>
