<svg width="30" height="25" viewBox="0 0 30 25" fill="none" xmlns="http://www.w3.org/2000/svg">
<path d="M19.1249 17.8594V14.7938C19.1249 13.9492 20.107 13.485 20.7596 14.0211L21.0463 14.2565C21.2252 14.4035 21.4495 14.4838 21.681 14.4838H26.2575C26.343 14.4838 26.4294 14.4728 26.5119 14.4502C28.0589 14.0263 28.6011 13.5188 28.7074 12.6126C28.7678 12.0973 28.304 11.697 27.7853 11.697H22.8411C22.4435 11.697 22.0857 11.4599 21.9177 11.0994C21.1967 9.55245 20.5287 8.62472 19.0586 7.48863C18.8988 7.3651 18.7028 7.29665 18.501 7.28888L14.7287 7.1438L10.713 7.29117C10.5408 7.29748 10.372 7.34698 10.2288 7.44277C9.00032 8.26438 8.33799 9.3139 7.3935 11.1484C7.22087 11.4837 6.8762 11.697 6.49907 11.697H1.65774C1.14504 11.697 0.676055 12.0912 0.760032 12.597C0.877285 13.3032 1.33715 13.798 2.47108 14.38C2.60642 14.4494 2.75764 14.4838 2.90975 14.4838H8.22754C8.46983 14.4838 8.70249 14.3889 8.87565 14.2194C9.46217 13.6454 10.4503 14.0609 10.4503 14.8816V17.8594M19.1249 17.8594H22.5332C22.7894 17.8594 23.0507 17.948 23.1955 18.1594C23.7115 18.9126 22.9534 19.5381 20.5772 20.6855M19.1249 17.8594C17.1824 18.2591 16.2762 18.524 16.0633 19.3117M20.5772 20.6855C21.2995 21.2417 21.7922 21.6208 22.4444 22.2102C22.8823 22.6059 22.8107 23.3065 22.3143 23.6257C22.2296 23.6801 22.1366 23.7206 22.0387 23.7438C21.4971 23.8721 21.1183 23.9129 20.2632 23.7079C16.0815 22.9136 14.3007 22.5791 13.3157 22.4126M20.5772 20.6855L16.0633 19.3117M13.3157 22.4126C12.9231 22.9971 12.4438 23.2474 10.8428 23.4723C9.185 23.6966 8.22919 23.7404 6.73433 23.5174C6.54638 23.4894 6.36206 23.4127 6.24496 23.2631C6.00616 22.9579 6.1373 22.7692 6.36421 22.5071C6.41871 22.4442 6.48135 22.3886 6.54985 22.3413L8.60552 20.921M13.3157 22.4126C10.9738 21.3664 9.97415 21.0685 8.60552 20.921M8.60552 20.921C7.37435 20.2866 6.80357 19.8515 6.31991 19.0594C6.21877 18.8938 6.1715 18.6963 6.21492 18.5072C6.32018 18.0486 6.57981 17.944 7.04126 17.8705C7.08949 17.8628 7.13849 17.8594 7.18733 17.8594H10.4503M10.4503 17.8594C13.9967 18.5209 15.7465 18.8752 16.0633 19.3117" stroke="currentColor" stroke-width="1.5"/>
<path d="M14.6897 0.75C16.2698 0.750113 17.551 2.03124 17.551 3.61133C17.5509 5.19132 16.2697 6.47254 14.6897 6.47266C13.1096 6.47266 11.8285 5.19139 11.8284 3.61133C11.8284 2.03117 13.1095 0.75 14.6897 0.75Z" stroke="currentColor" stroke-width="1.5"/>
</svg>
