<svg width="30" height="20" viewBox="0 0 30 20" fill="none" xmlns="http://www.w3.org/2000/svg">
<path d="M9.28931 10.9681H12.4393L14.7015 15.1776L16.6488 7.81812L18.281 10.9681H20.0851" stroke="currentColor" stroke-width="1.5"/>
<path d="M23.1205 0.888184L21.3164 1.80454V3.15043L23.8364 4.26723L24.7527 7.47447L21.3164 6.72993C18.844 5.04399 17.4023 5.15216 14.7587 6.72993C11.6413 4.85512 10.3502 5.25517 8.287 6.72993L4.73613 7.47447L5.76703 4.26723L8.287 3.15043V1.80454L6.2252 0.888184L4.33522 2.66362L1.15663 8.24764C0.669374 8.86714 0.562185 9.23581 1.15663 9.99444L7.85746 13.2303C10.0558 15.7409 11.4371 17.0363 14.7587 18.6998C17.6572 17.1998 19.1789 16.053 21.6314 13.2303L28.5327 9.99444C28.8321 9.38288 28.8126 8.9959 28.5327 8.24764L25.3254 2.66362L23.1205 0.888184Z" stroke="currentColor" stroke-width="1.5"/>
<path d="M21.6313 13.2304C23.0351 10.5849 22.9161 9.16551 21.345 6.72998" stroke="currentColor" stroke-width="1.5"/>
<path d="M7.85757 13.2304C6.45378 10.5849 6.71601 9.16551 8.28711 6.72998" stroke="currentColor" stroke-width="1.5"/>
</svg>
