<svg width="28" height="28" viewBox="0 0 28 28" fill="none" xmlns="http://www.w3.org/2000/svg">
<path d="M14.0334 2.33325C11.748 3.72727 11.0232 4.46659 9.76675 6.03325M14.0334 2.33325V9.93325M14.0334 2.33325C16.9832 4.35617 18.0106 5.67579 19.2667 8.19992M14.0334 17.6999V12.8999M14.0334 17.6999C17.1001 16.9999 20.9667 12.1666 19.2667 8.19992M14.0334 17.6999C8.63341 16.1666 7.06675 9.39992 9.76675 6.03325M14.0334 17.6999V22.1666M14.0334 12.8999L19.2667 8.19992M14.0334 12.8999V9.93325M9.76675 6.03325L14.0334 9.93325M14.0334 22.1666C18.7334 24.5333 23.2001 21.1999 25.9667 21.1999M14.0334 22.1666C9.88752 20.5412 7.53402 20.1725 3.16675 22.6666" stroke="currentColor" stroke-width="1.5"/>
<circle cx="14" cy="14" r="13.25" stroke="currentColor" stroke-width="1.5"/>
</svg>
