<svg width="29" height="35" viewBox="0 0 29 35" fill="none" xmlns="http://www.w3.org/2000/svg">
<path d="M15.8468 7.00767C18.2182 3.76845 19.7497 2.33569 22.6524 0.855138C22.8795 0.739345 23.1455 0.714723 23.3843 0.803608C24.4498 1.20011 24.6429 1.66382 24.41 2.52035C24.3503 2.74006 24.1988 2.92263 24.0072 3.04558C20.5879 5.23955 19.1729 6.93585 17.4221 9.81242C17.1689 10.2284 17.2615 10.7654 17.6252 11.0892C19.4455 12.71 20.4335 13.9831 21.8143 16.348L23.9937 19.5133C24.7855 20.6566 24.8741 21.2794 24.232 22.0917C24.0861 22.2762 23.8657 22.3831 23.6322 22.4118L20.6208 22.7825C18.5182 22.7825 18.1905 21.2294 19.6377 20.0899C20.113 19.7156 20.342 19.0537 20.0283 18.5365L19.4332 17.5554C19.0755 16.9658 18.2425 16.9066 17.8051 17.4397L15.9191 19.7382C15.6082 20.1171 15.6204 20.6635 15.9217 21.0501C18.9881 24.9847 20.327 30.7318 20.5768 31.9079C20.6073 32.0514 20.6037 32.1973 20.56 32.3373C19.9382 34.3312 18.1817 34.62 17.4014 32.2801C17.3672 32.1775 17.3537 32.0653 17.3565 31.9571C17.4957 26.5028 15.63 24.5313 10.7149 22.2045C10.5114 22.1081 10.2735 22.0843 10.0561 22.1429C3.06223 24.0286 3.50036 30.784 3.63039 31.9506C3.64339 32.0672 3.64201 32.1831 3.61439 32.2971C3.09189 34.4544 1.17007 34.1578 0.76679 32.2281C0.752342 32.159 0.747951 32.0872 0.750665 32.0166L0.898892 28.1627C0.90113 28.1046 0.90859 28.0457 0.921142 27.9889C1.56621 25.0678 2.54666 23.7804 5.11508 22.1481C5.21086 22.0872 5.29805 22.0095 5.36872 21.9207C8.11868 18.4652 9.74177 16.5685 12.5474 13.5389C12.6686 13.4081 12.7532 13.2464 12.7929 13.0725C13.4031 10.4039 14.1027 9.04029 15.8468 7.00767Z" stroke="currentColor" stroke-width="1.5"/>
<path d="M25.8816 7.53694C26.8331 8.48848 26.8243 10.2029 25.6571 11.3701C24.4899 12.537 22.7761 12.5453 21.8247 11.5938C20.8735 10.6423 20.8823 8.92911 22.0491 7.76205C23.2162 6.59499 24.9299 6.58573 25.8816 7.53694Z" stroke="currentColor" stroke-width="1.5"/>
</svg>
