<svg width="28" height="32" viewBox="0 0 28 32" fill="none" xmlns="http://www.w3.org/2000/svg">
<path d="M8.81396 0.75H20.3345L20.687 0.766602C24.2955 1.05181 26.869 4.6292 27.2124 8.44238C27.3863 10.3735 26.9627 12.2398 25.8862 13.6133C24.8264 14.9655 23.0607 15.9342 20.3423 15.96C19.8226 15.9649 19.2968 15.4886 19.1978 14.7148C19.0054 13.2112 18.5028 12.0336 17.5493 11.0537C16.6211 10.0998 15.3155 9.38626 13.6294 8.69727C13.3027 8.56376 12.9558 8.5 12.6118 8.5H4.92725C4.7909 8.5 4.64711 8.50936 4.50049 8.53418C4.40733 8.54995 4.31624 8.56705 4.22705 8.58496C3.72159 8.68648 3.22644 8.59453 2.90381 8.39648C2.61162 8.21701 2.47392 7.97222 2.51611 7.63184C2.90847 4.4761 5.00547 2.09993 8.41943 0.817383C8.50768 0.78423 8.60498 0.762588 8.7085 0.753906L8.81396 0.75Z" stroke="currentColor" stroke-width="1.5"/>
<path d="M8.40039 27.2507C7.89688 27.2507 7.46335 27.4463 7.16406 27.783C6.87709 28.1058 6.75005 28.5154 6.75 28.9001C6.75 29.2849 6.87718 29.6945 7.16406 30.0173C7.46335 30.354 7.89687 30.5505 8.40039 30.5505H8.40137L21.2021 30.5203L21.2012 30.5193C21.6963 30.5266 22.1281 30.3423 22.4297 30.0115C22.7219 29.6908 22.8496 29.2801 22.8496 28.8962C22.8495 28.5121 22.7214 28.1037 22.4346 27.782C22.1355 27.4466 21.7035 27.2508 21.2002 27.2507H8.40039ZM8.40039 28.7507H21.2002C21.2539 28.7508 21.282 28.7597 21.293 28.7644C21.3035 28.769 21.3102 28.7742 21.3154 28.78C21.3285 28.7948 21.3495 28.8346 21.3496 28.8962C21.3496 28.9584 21.3278 28.9925 21.3203 29.0007C21.318 29.0033 21.3159 29.0065 21.3086 29.0095C21.3008 29.0127 21.2737 29.0216 21.2188 29.0203H21.1982L8.39941 29.0496C8.34499 29.0495 8.31701 29.0404 8.30664 29.0359C8.29644 29.0314 8.29026 29.027 8.28516 29.0212C8.27218 29.0066 8.25 28.9653 8.25 28.9001C8.25005 28.8355 8.27215 28.7949 8.28516 28.78C8.29029 28.7743 8.29633 28.7689 8.30664 28.7644C8.31705 28.7599 8.34558 28.7507 8.40039 28.7507ZM6.21387 27.071L5.58887 26.9656C4.06263 26.7079 3.02204 26.144 2.28516 25.3669C1.55353 24.5954 1.067 23.5548 0.75 22.2332V15.8982C1.13529 14.5814 1.55804 13.7993 2.14062 13.2507C2.73047 12.6955 3.56196 12.3055 4.92188 11.9353H12.5938C14.6956 12.4768 15.7659 14.1327 15.7969 15.7761C15.8274 17.402 14.8399 19.0825 12.5947 19.6843H6.13281L6.03223 19.7136C5.21235 19.9479 4.81055 20.6672 4.81055 21.3494C4.8107 22.0258 5.19939 22.7341 5.9707 23.0281L6.09961 23.0779H13.3271L13.5264 22.9285L18.2188 19.4294C20.5812 19.5273 22.4229 19.4472 24.0166 18.9548C25.1726 18.5977 26.1675 18.0343 27.127 17.2224V22.032C26.6914 23.333 26.3142 24.1982 25.834 24.8542C25.3563 25.5068 24.7447 25.9954 23.7637 26.4714L23.3418 26.6765V29.6326C23.1853 30.0579 23.056 30.2891 22.9111 30.448C22.7766 30.5955 22.5859 30.7261 22.2256 30.8699H7.50684C7.09634 30.6997 6.86415 30.5494 6.69727 30.3826C6.53027 30.2156 6.38723 29.9908 6.21387 29.6072V27.071Z" stroke="currentColor" stroke-width="1.5"/>
</svg>
