<svg width="30" height="30" viewBox="0 0 30 30" fill="none" xmlns="http://www.w3.org/2000/svg">
<path d="M17.831 7.75311L16.0106 5.87403C15.8222 5.67959 15.5631 5.56982 15.2924 5.56982H13.4591C13.2705 5.56982 13.083 5.6199 12.9339 5.73531C11.2755 7.01897 11.0874 9.92744 12.966 11.0515C13.0973 11.1301 13.25 11.1627 13.4031 11.1627H14.748C15.1766 11.1627 15.5575 11.4357 15.6951 11.8416L15.9811 12.6853C16.2849 13.5814 15.247 14.3969 14.328 14.1718C13.3379 13.9293 12.3834 14.0183 11.1769 14.4078C10.7775 14.5367 10.3386 14.4244 10.0478 14.1218C8.99727 13.0282 8.19281 12.7188 6.87404 13.3969C6.5681 13.5543 6.39453 13.8811 6.39453 14.2251V20.0477C6.39453 20.1468 6.40892 20.2461 6.43974 20.3403C6.74319 21.2679 7.03641 21.496 7.64933 21.5596H21.3937C21.4801 21.5596 21.5671 21.5486 21.6501 21.5248C23.2871 21.0553 23.4326 20.2597 23.2642 18.6864C23.2519 18.5712 23.2183 18.4592 23.1667 18.3556L18.0078 8.0029C17.962 7.91106 17.9024 7.82681 17.831 7.75311Z" stroke="currentColor" stroke-width="1.5"/>
<path d="M1.51855 12.2024C1.51855 9.15727 5.31909 4.14149 8.87793 2.33593C9.36693 2.08783 9.44733 0.901712 8.93981 0.694092" stroke="currentColor" stroke-width="1.5"/>
<path d="M27.8337 17.1858C27.8337 20.2309 24.0332 25.2467 20.4744 27.0523C19.9854 27.3004 19.905 28.4865 20.4125 28.6941" stroke="currentColor" stroke-width="1.5"/>
<path d="M17.1858 1.55444C20.2309 1.55444 25.2467 5.35497 27.0523 8.91382C27.3004 9.40282 28.4865 9.48321 28.6941 8.9757" stroke="currentColor" stroke-width="1.5"/>
<path d="M12.2024 27.8337C9.15727 27.8337 4.14149 24.0332 2.33593 20.4744C2.08783 19.9854 0.901712 19.905 0.694092 20.4125" stroke="currentColor" stroke-width="1.5"/>
</svg>
