<svg width="30" height="30" viewBox="0 0 30 30" fill="none" xmlns="http://www.w3.org/2000/svg">
<path d="M19.037 28.6476L1.57202 11.0139C0.477998 9.84149 0.473994 9.19343 1.57202 8.0609L2.12043 7.54619M19.037 28.6476H2.16263M19.037 28.6476H26.075C26.1913 28.6476 26.3093 28.6274 26.4171 28.584C30.0036 27.138 29.0249 22.6164 26.3731 21.8058C26.2927 21.7812 26.2082 21.7713 26.124 21.7713H23.2977C22.0942 21.6019 21.6771 21.2733 21.2728 20.3792L20.2182 17.0465M20.2182 17.0465L18.6995 18.4808M20.2182 17.0465L19.2479 13.756M19.2479 13.756L17.687 15.2325M19.2479 13.756L18.2354 10.5077M18.2354 10.5077L16.8011 11.8576M18.2354 10.5077L17.2652 6.83751C17.1356 6.15623 16.8899 5.94909 15.9996 6.03598L13.8481 6.2891C12.3149 6.56167 11.4696 4.68785 11.2012 3.95691C11.1338 3.77341 11.1408 3.57388 11.1865 3.38381C11.6334 1.5255 10.5074 0.527442 9.14192 0.791385C8.98962 0.820824 8.85314 0.902016 8.73938 1.00746L7.18275 2.45019M7.18275 2.45019C9.29832 6.08796 9.99401 8.56886 8.15301 13.5872M7.18275 2.45019L2.12043 7.54619M8.15301 13.5872L2.12043 7.54619M8.15301 13.5872L20.0101 25.362C20.1974 25.548 20.4507 25.6524 20.7147 25.6524H28.733" stroke="currentColor" stroke-width="1.5"/>
<path d="M2.07812 25.6101H12.9199" stroke="currentColor" stroke-width="1.5"/>
<path d="M10.8106 22.4885H2.07812" stroke="currentColor" stroke-width="1.5"/>
</svg>
